<mxfile host="app.diagrams.net" modified="2020-04-02T07:17:49.054Z" agent="Mozilla/5.0 (Macintosh; Intel Mac OS X 10_14_2) AppleWebKit/537.36 (KHTML, like Gecko) Chrome/80.0.3987.149 Safari/537.36" etag="PsYbMjQf4pzl8wm1xhb9" version="12.9.2" type="github">
  <diagram name="Page-1" id="12e1b939-464a-85fe-373e-61e167be1490">
    <mxGraphModel dx="1977" dy="2407" grid="1" gridSize="10" guides="1" tooltips="1" connect="1" arrows="1" fold="1" page="1" pageScale="1.5" pageWidth="1169" pageHeight="826" background="#ffffff" math="0" shadow="0">
      <root>
        <mxCell id="0" />
        <mxCell id="1" parent="0" />
        <mxCell id="60da8b9f42644d3a-3" value="ATTRACT" style="text;html=1;strokeColor=none;fillColor=none;align=center;verticalAlign=middle;whiteSpace=wrap;rounded=0;shadow=0;fontSize=27;fontColor=#FFFFFF;fontStyle=1;direction=south;" parent="1" vertex="1">
          <mxGeometry x="426" y="182.5" width="60" height="280" as="geometry" />
        </mxCell>
        <mxCell id="60da8b9f42644d3a-6" value="" style="line;strokeWidth=2;html=1;rounded=0;shadow=0;fontSize=27;align=center;fillColor=none;strokeColor=#FFFFFF;direction=south;" parent="1" vertex="1">
          <mxGeometry x="451" y="237.5" width="10" height="240" as="geometry" />
        </mxCell>
        <mxCell id="60da8b9f42644d3a-7" value="" style="line;strokeWidth=2;html=1;rounded=0;shadow=0;fontSize=27;align=center;fillColor=none;strokeColor=#FFFFFF;direction=south;" parent="1" vertex="1">
          <mxGeometry x="451" y="457.5" width="10" height="240" as="geometry" />
        </mxCell>
        <mxCell id="60da8b9f42644d3a-8" value="需求了解" style="ellipse;whiteSpace=wrap;html=1;rounded=0;shadow=0;strokeWidth=6;fontSize=14;align=center;fillColor=#BFB4A9;strokeColor=#FFFFFF;fontColor=#FFFFFF;" parent="1" vertex="1">
          <mxGeometry x="426" y="-42.5" width="115" height="115" as="geometry" />
        </mxCell>
        <mxCell id="60da8b9f42644d3a-9" value="" style="html=1;shadow=0;dashed=0;align=center;verticalAlign=middle;shape=mxgraph.arrows2.stylisedArrow;dy=0.6;dx=40;notch=15;feather=0.4;rounded=0;strokeWidth=1;fontSize=27;strokeColor=none;fillColor=#fff2cc;direction=south;" parent="1" vertex="1">
          <mxGeometry x="453.5" y="72.5" width="60" height="100" as="geometry" />
        </mxCell>
        <mxCell id="60da8b9f42644d3a-18" value="CONVERT" style="text;html=1;strokeColor=none;fillColor=none;align=center;verticalAlign=middle;whiteSpace=wrap;rounded=0;shadow=0;fontSize=27;fontColor=#FFFFFF;fontStyle=1;direction=south;" parent="1" vertex="1">
          <mxGeometry x="706" y="315" width="60" height="280" as="geometry" />
        </mxCell>
        <mxCell id="60da8b9f42644d3a-20" value="" style="line;strokeWidth=2;html=1;rounded=0;shadow=0;fontSize=27;align=center;fillColor=none;strokeColor=#FFFFFF;direction=south;" parent="1" vertex="1">
          <mxGeometry x="731" y="370" width="10" height="240" as="geometry" />
        </mxCell>
        <mxCell id="60da8b9f42644d3a-21" value="" style="line;strokeWidth=2;html=1;rounded=0;shadow=0;fontSize=27;align=center;fillColor=none;strokeColor=#FFFFFF;direction=south;" parent="1" vertex="1">
          <mxGeometry x="731" y="590" width="10" height="240" as="geometry" />
        </mxCell>
        <mxCell id="60da8b9f42644d3a-22" value="需求评审" style="ellipse;whiteSpace=wrap;html=1;rounded=0;shadow=0;strokeWidth=6;fontSize=14;align=center;fillColor=#397DAA;strokeColor=#FFFFFF;fontColor=#FFFFFF;direction=south;" parent="1" vertex="1">
          <mxGeometry x="423.5" y="172.5" width="115" height="115" as="geometry" />
        </mxCell>
        <mxCell id="60da8b9f42644d3a-23" value="" style="html=1;shadow=0;dashed=0;align=center;verticalAlign=middle;shape=mxgraph.arrows2.stylisedArrow;dy=0.6;dx=40;notch=15;feather=0.4;rounded=0;strokeWidth=1;fontSize=27;strokeColor=none;fillColor=#fff2cc;direction=south;" parent="1" vertex="1">
          <mxGeometry x="451" y="297.5" width="60" height="100" as="geometry" />
        </mxCell>
        <mxCell id="60da8b9f42644d3a-25" value="CLOSE" style="text;html=1;strokeColor=none;fillColor=none;align=center;verticalAlign=middle;whiteSpace=wrap;rounded=0;shadow=0;fontSize=27;fontColor=#FFFFFF;fontStyle=1;direction=south;" parent="1" vertex="1">
          <mxGeometry x="986" y="315" width="60" height="280" as="geometry" />
        </mxCell>
        <mxCell id="60da8b9f42644d3a-26" value="Email&lt;div&gt;Signals&lt;/div&gt;&lt;div&gt;Workflows&lt;/div&gt;" style="text;html=1;strokeColor=none;fillColor=none;align=center;verticalAlign=middle;whiteSpace=wrap;rounded=0;shadow=0;fontSize=14;fontColor=#FFFFFF;direction=south;" parent="1" vertex="1">
          <mxGeometry x="971" y="630" width="90" height="280" as="geometry" />
        </mxCell>
        <mxCell id="60da8b9f42644d3a-27" value="" style="line;strokeWidth=2;html=1;rounded=0;shadow=0;fontSize=27;align=center;fillColor=none;strokeColor=#FFFFFF;direction=south;" parent="1" vertex="1">
          <mxGeometry x="1011" y="370" width="10" height="240" as="geometry" />
        </mxCell>
        <mxCell id="60da8b9f42644d3a-28" value="" style="line;strokeWidth=2;html=1;rounded=0;shadow=0;fontSize=27;align=center;fillColor=none;strokeColor=#FFFFFF;direction=south;" parent="1" vertex="1">
          <mxGeometry x="1011" y="590" width="10" height="240" as="geometry" />
        </mxCell>
        <mxCell id="60da8b9f42644d3a-29" value="研发排期" style="ellipse;whiteSpace=wrap;html=1;rounded=0;shadow=0;strokeWidth=6;fontSize=14;align=center;fillColor=#EF9353;strokeColor=#FFFFFF;fontColor=#FFFFFF;direction=south;" parent="1" vertex="1">
          <mxGeometry x="426" y="397.5" width="115" height="115" as="geometry" />
        </mxCell>
        <mxCell id="60da8b9f42644d3a-30" value="" style="html=1;shadow=0;dashed=0;align=center;verticalAlign=middle;shape=mxgraph.arrows2.stylisedArrow;dy=0.6;dx=40;notch=15;feather=0.4;rounded=0;strokeWidth=1;fontSize=27;strokeColor=none;fillColor=#fff2cc;direction=south;" parent="1" vertex="1">
          <mxGeometry x="451" y="512.5" width="60" height="100" as="geometry" />
        </mxCell>
        <mxCell id="60da8b9f42644d3a-32" value="DELIGHT" style="text;html=1;strokeColor=none;fillColor=none;align=center;verticalAlign=middle;whiteSpace=wrap;rounded=0;shadow=0;fontSize=27;fontColor=#FFFFFF;fontStyle=1;direction=south;" parent="1" vertex="1">
          <mxGeometry x="1266" y="315" width="60" height="280" as="geometry" />
        </mxCell>
        <mxCell id="60da8b9f42644d3a-33" value="Events&lt;div&gt;Social Inbox&lt;/div&gt;&lt;div&gt;Smart Content&lt;/div&gt;" style="text;html=1;strokeColor=none;fillColor=none;align=center;verticalAlign=middle;whiteSpace=wrap;rounded=0;shadow=0;fontSize=14;fontColor=#FFFFFF;direction=south;" parent="1" vertex="1">
          <mxGeometry x="1251" y="630" width="90" height="280" as="geometry" />
        </mxCell>
        <mxCell id="60da8b9f42644d3a-34" value="" style="line;strokeWidth=2;html=1;rounded=0;shadow=0;fontSize=27;align=center;fillColor=none;strokeColor=#FFFFFF;direction=south;" parent="1" vertex="1">
          <mxGeometry x="1291" y="370" width="10" height="240" as="geometry" />
        </mxCell>
        <mxCell id="60da8b9f42644d3a-35" value="" style="line;strokeWidth=2;html=1;rounded=0;shadow=0;fontSize=27;align=center;fillColor=none;strokeColor=#FFFFFF;direction=south;" parent="1" vertex="1">
          <mxGeometry x="1291" y="590" width="10" height="240" as="geometry" />
        </mxCell>
        <mxCell id="60da8b9f42644d3a-36" value="开发周期" style="ellipse;whiteSpace=wrap;html=1;rounded=0;shadow=0;strokeWidth=6;fontSize=14;align=center;fillColor=#68B85C;strokeColor=#FFFFFF;fontColor=#FFFFFF;direction=south;" parent="1" vertex="1">
          <mxGeometry x="423.5" y="612.5" width="115" height="115" as="geometry" />
        </mxCell>
        <mxCell id="60da8b9f42644d3a-37" value="" style="html=1;shadow=0;dashed=0;align=center;verticalAlign=middle;shape=mxgraph.arrows2.stylisedArrow;dy=0.6;dx=40;notch=15;feather=0.4;rounded=0;strokeWidth=1;fontSize=27;strokeColor=none;fillColor=#fff2cc;direction=south;" parent="1" vertex="1">
          <mxGeometry x="451" y="727.5" width="60" height="100" as="geometry" />
        </mxCell>
        <mxCell id="60da8b9f42644d3a-38" value="测试周期" style="ellipse;whiteSpace=wrap;html=1;rounded=0;shadow=0;strokeWidth=6;fontSize=14;align=center;fillColor=#BF639A;strokeColor=#FFFFFF;fontColor=#FFFFFF;direction=south;" parent="1" vertex="1">
          <mxGeometry x="426" y="837.5" width="115" height="115" as="geometry" />
        </mxCell>
        <mxCell id="5Bo4QO79uzK-TxsnAqFC-8" value="功能上线" style="ellipse;whiteSpace=wrap;html=1;rounded=0;shadow=0;strokeWidth=6;fontSize=14;align=center;fillColor=#fff2cc;strokeColor=#FFF4C3;direction=south;" vertex="1" parent="1">
          <mxGeometry x="423.5" y="1070" width="115" height="115" as="geometry" />
        </mxCell>
        <mxCell id="5Bo4QO79uzK-TxsnAqFC-9" value="" style="html=1;shadow=0;dashed=0;align=center;verticalAlign=middle;shape=mxgraph.arrows2.stylisedArrow;dy=0.6;dx=40;notch=15;feather=0.4;rounded=0;strokeWidth=1;fontSize=27;strokeColor=none;fillColor=#fff2cc;direction=south;" vertex="1" parent="1">
          <mxGeometry x="453.5" y="960" width="60" height="100" as="geometry" />
        </mxCell>
      </root>
    </mxGraphModel>
  </diagram>
</mxfile>
